Coordinates
version=1
nRows=22
nColumns=21
inDegrees=yes

Units are S.I. units (second, meters, Newtons, ...)
If the header above contains a line with 'inDegrees', this indicates whether rotational values are in degrees (yes) or radians (no).

endheader
time	sternoclavicular_r2	sternoclavicular_r3	unrotscap_r3	unrotscap_r2	acromioclavicular_r2	acromioclavicular_r3	acromioclavicular_r1	unrothum_r1	unrothum_r3	unrothum_r2	elv_angle	shoulder_elev	shoulder1_r2	shoulder_rot	elbow_flexion	pro_sup	deviation	flexion	wrist_hand_r1	wrist_hand_r3
      5.05050505	     -6.21312379	      2.63158599	     -2.63158599	      6.21312379	     -1.25803118	     10.16696550	      4.56998102	     -4.56998102	    -10.16696550	      1.25803118	    -52.00395576	     25.67400771	     52.00395576	      4.65989361	     88.61753218	      0.00000000	      0.00000000	     -0.00000000	     -0.00000000	      0.00000000
      5.15151515	     -5.96981227	      2.52853072	     -2.52853072	      5.96981227	     -1.20876555	      9.76881798	      4.39101645	     -4.39101645	     -9.76881798	      1.20876555	    -51.76105456	     24.66859047	     51.76105456	      4.35434721	     86.00931184	      0.00000000	      0.00000000	     -0.00000000	     -0.00000000	      0.00000000
      5.25252525	     -5.71160522	      2.41916640	     -2.41916640	      5.71160522	     -1.15648387	      9.34629586	      4.20109567	     -4.20109567	     -9.34629586	      1.15648387	    -51.48009317	     23.60162155	     51.48009317	      3.98802822	     83.34306337	      0.00000000	      0.00000000	     -0.00000000	     -0.00000000	      0.00000000
      5.35353535	     -5.43785069	      2.30321690	     -2.30321690	      5.43785069	     -1.10105415	      8.89833233	      3.99973914	     -3.99973914	     -8.89833233	      1.10105415	    -51.15629533	     22.47040702	     51.15629533	      3.55073092	     80.61830839	      0.00000000	      0.00000000	     -0.00000000	     -0.00000000	      0.00000000
      5.45454545	     -5.14368611	      2.17862267	     -2.17862267	      5.14368611	     -1.04149181	      8.41697043	      3.78337028	     -3.78337028	     -8.41697043	      1.04149181	    -50.77699125	     21.25485365	     50.77699125	      3.02024570	     77.81896361	      0.00000000	      0.00000000	     -0.00000000	     -0.00000000	      0.00000000
      5.55555556	     -4.83438074	      2.04761551	     -2.04761551	      4.83438074	     -0.97886376	      7.91083260	      3.55586481	     -3.55586481	     -7.91083260	      0.97886376	    -50.34644001	     19.97673516	     50.34644001	      2.39264813	     74.96894629	      0.00000000	      0.00000000	     -0.00000000	     -0.00000000	      0.00000000
      5.65656566	     -4.50521238	      1.90819533	     -1.90819533	      4.50521238	     -0.91221386	      7.37219157	      3.31374937	     -3.31374937	     -7.37219157	      0.91221386	    -49.84894684	     18.61653835	     49.84894684	      1.63895138	     72.05567016	      0.00000000	      0.00000000	     -0.00000000	     -0.00000000	      0.00000000
      5.75757576	     -4.15355678	      1.75925061	     -1.75925061	      4.15355678	     -0.84101076	      6.79675311	      3.05509375	     -3.05509375	     -6.79675311	      0.84101076	    -49.27135012	     17.16341928	     49.27135012	      0.72713688	     69.07749577	      0.00000000	      0.00000000	     -0.00000000	     -0.00000000	      0.00000000
      5.85858586	     -3.77563157	      1.59917933	     -1.59917933	      3.77563157	     -0.76448859	      6.17832787	      2.77711586	     -2.77711586	     -6.17832787	      0.76448859	    -48.59606896	     15.60174837	     48.59606896	     -0.38813513	     66.03320649	      0.00000000	      0.00000000	     -0.00000000	     -0.00000000	      0.00000000
      5.95959596	     -3.36581728	      1.42560134	     -1.42560134	      3.36581728	     -0.68150953	      5.50772032	      2.47568238	     -2.47568238	     -5.50772032	      0.68150953	    -47.79943136	     13.90830470	     47.79943136	     -1.77364869	     62.92360425	      0.00000000	      0.00000000	     -0.00000000	     -0.00000000	      0.00000000
      6.06060606	     -2.91523479	      1.23475587	     -1.23475587	      2.91523479	     -0.59027575	      4.77040094	      2.14426239	     -2.14426239	     -4.77040094	      0.59027575	    -46.85030801	     12.04639776	     46.85030801	     -3.53349145	     59.75450911	      0.00000000	      0.00000000	     -0.00000000	     -0.00000000	      0.00000000
      6.16161616	     -2.39529701	      1.01453476	     -1.01453476	      2.39529701	     -0.48499892	      3.91959068	      1.76182904	     -1.76182904	     -3.91959068	      0.48499892	    -45.67813107	      9.89789937	     45.67813107	     -5.92482774	     56.49625943	      0.00000000	      0.00000000	     -0.00000000	     -0.00000000	      0.00000000
      6.26262626	     -1.77811916	      0.75312735	     -0.75312735	      1.77811916	     -0.36003296	      2.90965974	      1.30787203	     -1.30787203	     -2.90965974	      0.36003296	    -44.21421861	      7.34758337	     44.21421861	     -9.28692299	     53.20210589	      0.00000000	      0.00000000	     -0.00000000	     -0.00000000	      0.00000000
      6.36363636	     -0.95262883	      0.40348861	     -0.40348861	      0.95262883	     -0.19288796	      1.55885265	      0.70069354	     -0.70069354	     -1.55885265	      0.19288796	    -42.32615576	      3.93647396	     42.32615576	    -14.70651648	     49.94851532	      0.00000000	      0.00000000	     -0.00000000	     -0.00000000	      0.00000000
      6.46464646	     -0.09844359	      0.04169606	     -0.04169606	      0.09844359	     -0.01993282	      0.16109007	      0.07240888	     -0.07240888	     -0.16109007	      0.01993282	    -40.51764179	      0.40679076	     40.51764179	    -21.26520053	     47.71881311	      0.00000000	      0.00000000	     -0.00000000	     -0.00000000	      0.00000000
      6.56565657	     -0.65100406	      0.27573459	     -0.27573459	      0.65100406	     -0.13181508	      1.06528311	      0.47883743	     -0.47883743	     -1.06528311	      0.13181508	     54.72433843	      2.69009340	    -54.72433843	    -20.64979539	     41.93376983	      0.00000000	      0.00000000	     -0.00000000	     -0.00000000	      0.00000000
      6.66666667	     -1.16151777	      0.49196411	     -0.49196411	      1.16151777	     -0.23518372	      1.90067211	      0.85433903	     -0.85433903	     -1.90067211	      0.23518372	     54.77553497	      4.79964946	    -54.77553497	    -19.24769978	     37.12900515	      0.00000000	      0.00000000	     -0.00000000	     -0.00000000	      0.00000000
      6.76767677	     -1.73693854	      0.73568518	     -0.73568518	      1.73693854	     -0.35169472	      2.84227303	      1.27758216	     -1.27758216	     -2.84227303	      0.35169472	     55.00658870	      7.17741588	    -55.00658870	    -17.31281342	     31.73847731	      0.00000000	      0.00000000	     -0.00000000	     -0.00000000	      0.00000000
      6.86868687	     -2.39347968	      1.01376502	     -1.01376502	      2.39347968	     -0.48463095	      3.91661684	      1.76049232	     -1.76049232	     -3.91661684	      0.48463095	     55.55623716	      9.89038972	    -55.55623716	    -14.58409594	     25.55513477	      0.00000000	      0.00000000	     -0.00000000	     -0.00000000	      0.00000000
      6.96969697	     -3.25569069	      1.37895692	     -1.37895692	      3.25569069	     -0.65921114	      5.32751255	      2.39468023	     -2.39468023	     -5.32751255	      0.65921114	     57.23894816	     13.45323718	    -57.23894816	    -10.33103764	     17.34658674	      0.00000000	      0.00000000	     -0.00000000	     -0.00000000	      0.00000000
      7.07070707	     -4.53763059	      1.92192615	     -1.92192615	      4.53763059	     -0.91877789	      7.42523974	      3.33759416	     -3.33759416	     -7.42523974	      0.91877789	     61.92676132	     18.75049761	    -61.92676132	     -3.64183068	      4.73696302	      0.00000000	      0.00000000	     -0.00000000	     -0.00000000	      0.00000000
      7.17171717	     -4.62664754	      1.95962953	     -1.95962953	      4.62664754	     -0.93680201	      7.57090435	      3.40306940	     -3.40306940	     -7.57090435	      0.93680201	     58.52144840	     19.11833541	    -58.52144840	     11.18970319	      1.70913843	      0.00000000	      0.00000000	     -0.00000000	     -0.00000000	      0.00000000
